<?xml version="1.0" encoding="UTF-8" standalone="no" ?>
<!DOCTYPE svg PUBLIC "-//W3C//DTD SVG 1.1//EN" "http://www.w3.org/Graphics/SVG/1.1/DTD/svg11.dtd">
<svg xmlns="http://www.w3.org/2000/svg" xmlns:xlink="http://www.w3.org/1999/xlink" version="1.1" width="288" height="56" viewBox="0 0 288 56" xml:space="preserve">
<desc>Created with Fabric.js 3.6.6</desc>
<defs>
</defs>
<g transform="matrix(1 0 0 1 141.1 28.1)"  >
<g style=""   >
</g>
</g>
<g transform="matrix(1 0 0 1 141.11 28.1)"  >
<g style=""   >
		<g transform="matrix(2.29 0 0 0.85 -117.5 -0.52)"  >
<g style=""   >
		<g transform="matrix(0.74 -0.04 0.02 2.01 1.64 0.91)"  >
<rect style="stroke: rgb(34,31,31); stroke-opacity: 0; stroke-width: 4; stroke-dasharray: none; stroke-linecap: butt; stroke-dashoffset: 0; stroke-linejoin: miter; stroke-miterlimit: 4; fill: rgb(255,255,255); fill-rule: nonzero; opacity: 1;" vector-effect="non-scaling-stroke"  x="-15.9" y="-15.9" rx="7.9" ry="7.9" width="31.8" height="31.8" />
</g>
		<g transform="matrix(0.74 -0.04 0.02 2.01 1.64 0.91)"  >
<linearGradient id="SVGID_SVGID_33_5" gradientUnits="userSpaceOnUse" gradientTransform="matrix(1 0 0 1 -19 -18)"  x1="19" y1="2" x2="19" y2="34">
<stop offset="0%" style="stop-color:rgb(255,255,255);stop-opacity: 1"/>
<stop offset="100%" style="stop-color:rgb(208,213,221);stop-opacity: 1"/>
</linearGradient>
<rect style="stroke: rgb(34,31,31); stroke-opacity: 0; stroke-width: 4; stroke-dasharray: none; stroke-linecap: butt; stroke-dashoffset: 0; stroke-linejoin: miter; stroke-miterlimit: 4; fill: url(#SVGID_SVGID_33_5); fill-rule: nonzero; opacity: 1;" vector-effect="non-scaling-stroke"  x="-15.9" y="-15.9" rx="7.9" ry="7.9" width="31.8" height="31.8" />
</g>
		<g transform="matrix(0.74 -0.04 0.02 2.01 2 1.71)"  >
<rect style="stroke: rgb(34,31,31); stroke-opacity: 0; stroke-width: 4; stroke-dasharray: none; stroke-linecap: butt; stroke-dashoffset: 0; stroke-linejoin: miter; stroke-miterlimit: 4; fill: none; fill-rule: nonzero; opacity: 1;" vector-effect="non-scaling-stroke"  x="-15.9" y="-15.9" rx="7.9" ry="7.9" width="31.8" height="31.8" />
</g>
		<g transform="matrix(0.74 -0.04 0.02 2.01 1.64 1.11)"  >
<linearGradient id="SVGID_SVGID_34_6" gradientUnits="userSpaceOnUse" gradientTransform="matrix(1 0 0 1 0 0)"  x1="10.1989" y1="24.2137" x2="27.8347" y2="6.57788">
<stop offset="0%" style="stop-color:rgb(0,118,193);stop-opacity: 1"/>
<stop offset="7.37%" style="stop-color:rgb(11,130,198);stop-opacity: 1"/>
<stop offset="27.66%" style="stop-color:rgb(38,158,211);stop-opacity: 1"/>
<stop offset="45.46%" style="stop-color:rgb(54,175,218);stop-opacity: 1"/>
<stop offset="58.699999999999996%" style="stop-color:rgb(60,181,221);stop-opacity: 1"/>
</linearGradient>
<path style="stroke: rgb(34,31,31); stroke-opacity: 0; stroke-width: 4; stroke-dasharray: none; stroke-linecap: butt; stroke-dashoffset: 0; stroke-linejoin: miter; stroke-miterlimit: 4; fill: url(#SVGID_SVGID_34_6); fill-rule: nonzero; opacity: 1;" vector-effect="non-scaling-stroke"  transform=" translate(-19, -18.09)" d="M 18.3546 13.1827 C 22.7105 11.4503 27.4742 12.8184 29.6373 14.9132 C 30.106 15.3671 30.5041 15.8275 30.845 16.2851 C 31.0394 15.2107 31.0552 14.1405 30.8681 13.1055 C 30.1847 9.32646 26.6195 7.18558 23.4233 8.29146 C 20.2415 9.39237 19.0005 11.5321 19.0005 11.5321 C 19.0005 11.5321 17.7595 9.39237 14.5777 8.29146 C 11.3812 7.18558 7.81603 9.32669 7.1328 13.1055 C 6.62842 15.8944 7.58356 18.9391 9.61033 21.6298 C 10.0372 21.7732 10.4847 21.8809 10.9586 21.943 C 13.7978 22.3163 14.8184 21.557 16.0178 21.0486 C 16.8142 20.7112 17.4134 21.0942 17.3843 21.3626 C 17.3392 21.7786 15.7693 22.4895 16.106 22.6388 C 17.4351 23.2284 19.0718 23.2334 20.3053 22.18 C 21.838 20.8712 22.4114 21.7658 22.4114 21.7658 C 22.4114 21.7658 21.6502 23.7076 19.3581 24.6717 C 17.4457 25.4761 15.4419 25.6743 13.6107 25.4683 C 15.19 26.5846 17.0035 27.5204 19.0005 28.1882 C 24.7099 26.2784 28.9276 22.1871 30.4145 17.9096 C 29.4072 16.9157 28.1716 16.2995 26.6988 16.0763 C 23.8674 15.647 22.8322 16.3862 21.6228 16.8708 C 20.8198 17.1926 20.2285 16.7978 20.263 16.5299 C 20.3161 16.1148 21.8999 15.4351 21.5661 15.279 C 20.249 14.6633 18.6125 14.626 17.3585 15.6548 C 15.8003 16.9332 15.2446 16.0274 15.2446 16.0274 C 15.2446 16.0274 16.0438 14.1015 18.3546 13.1827 Z M 17.2709 18.5051 H 18.3709 V 17.4052 H 19.6296 V 18.5051 H 20.7296 V 19.7639 H 19.6296 V 20.8638 H 18.3709 V 19.7639 H 17.2709 V 18.5051 Z" stroke-linecap="round" />
</g>
		<g transform="matrix(0.74 -0.04 0.02 2.01 2.46 -4.83)"  >
<linearGradient id="SVGID_SVGID_35_7" gradientUnits="userSpaceOnUse" gradientTransform="matrix(1 0 0 1 0 0)"  x1="10.1388" y1="24.2537" x2="27.8274" y2="6.56509">
<stop offset="0%" style="stop-color:rgb(0,164,130);stop-opacity: 1"/>
<stop offset="100%" style="stop-color:rgb(121,221,131);stop-opacity: 1"/>
</linearGradient>
<path style="stroke: rgb(34,31,31); stroke-opacity: 0; stroke-width: 4; stroke-dasharray: none; stroke-linecap: butt; stroke-dashoffset: 0; stroke-linejoin: miter; stroke-miterlimit: 4; fill: url(#SVGID_SVGID_35_7); fill-rule: nonzero; opacity: 1;" vector-effect="non-scaling-stroke"  transform=" translate(-20.17, -15.17)" d="M 17.2709 18.5052 H 18.3709 V 17.4052 H 19.6296 V 18.5052 H 20.7295 V 19.7639 H 19.6378 C 21.2597 20.5834 24.2383 21.8027 27.8177 22.3451 C 28.9956 20.9517 29.8813 19.4428 30.4143 17.9096 C 29.4069 16.9157 28.1713 16.2996 26.6986 16.0763 C 23.8672 15.647 22.8319 16.3863 21.6226 16.8708 C 20.8196 17.1926 20.2282 16.7978 20.2627 16.5299 C 20.3159 16.1148 21.8997 15.4351 21.5659 15.279 C 20.2488 14.6633 18.6123 14.626 17.3583 15.6548 C 15.8 16.9332 15.2443 16.0274 15.2443 16.0274 C 15.2443 16.0274 16.0438 14.1013 18.3543 13.1823 C 22.7102 11.4499 27.4739 12.818 29.637 14.9128 C 30.1057 15.3666 30.5038 15.8271 30.8447 16.2847 C 31.0392 15.2102 31.055 14.14 30.8679 13.105 C 30.1844 9.326 26.6192 7.18512 23.423 8.291 C 20.2412 9.39191 19.0002 11.5316 19.0002 11.5316 C 19.0002 11.5316 17.7592 9.39191 14.5774 8.291 C 12.7519 7.65927 10.8067 8.0883 9.34619 9.27521 C 10.0323 10.7442 10.836 12.1168 13.1254 14.8773 C 14.9868 17.1222 17.2709 18.5052 17.2709 18.5052 Z" stroke-linecap="round" />
</g>
		<g transform="matrix(0.74 -0.04 0.02 2.01 6.14 -11.62)"  >
<linearGradient id="SVGID_SVGID_36_8" gradientUnits="userSpaceOnUse" gradientTransform="matrix(1 0 0 1 0 0)"  x1="24.8608" y1="13.5072" x2="28.5288" y2="10.1131">
<stop offset="0%" style="stop-color:rgb(0,164,130);stop-opacity: 1"/>
<stop offset="100%" style="stop-color:rgb(121,221,131);stop-opacity: 1"/>
</linearGradient>
<path style="stroke: rgb(34,31,31); stroke-opacity: 0; stroke-width: 4; stroke-dasharray: none; stroke-linecap: butt; stroke-dashoffset: 0; stroke-linejoin: miter; stroke-miterlimit: 4; fill: url(#SVGID_SVGID_36_8); fill-rule: nonzero; opacity: 0.31;" vector-effect="non-scaling-stroke"  transform=" translate(-25.25, -11.91)" d="M 27.277 9.64942 C 24.2712 8.13932 21.169 10.489 20.1851 11.7298 C 21.882 11.3724 23.3668 11.189 25.2457 11.5838 C 28.0252 12.1678 29.0654 13.1714 30.3064 14.6541 C 30.0871 11.9068 28.3519 10.1895 27.277 9.64942 Z" stroke-linecap="round" />
</g>
</g>
</g>
		<g transform="matrix(1.56 0 0 1.56 34.6 1.84)" style=""  >
		<text xml:space="preserve" font-family="Impact, Charcoal, sans-serif" font-size="30" font-style="normal" style="stroke: none; stroke-width: 1; stroke-dasharray: none; stroke-linecap: butt; stroke-dashoffset: 0; stroke-linejoin: miter; stroke-miterlimit: 4; fill: rgb(251,249,249); fill-rule: nonzero; opacity: 1; white-space: pre;" ><tspan x="-74.73" y="9.42" >C</tspan><tspan x="-59.11" y="9.42" >a</tspan><tspan x="-45" y="9.42" >r</tspan><tspan x="-35.26" y="9.42" >e</tspan><tspan x="-20.92" y="9.42" >M</tspan><tspan x="-0.42" y="9.42" >a</tspan><tspan x="13.7" y="9.42" >n</tspan><tspan x="28.39" y="9.42" >a</tspan><tspan x="42.5" y="9.42" >g</tspan><tspan x="57.06" y="9.42" >e</tspan></text>
</g>
</g>
</g>
</svg>